<svg width="74" height="74" viewBox="0 0 74 74" fill="none" xmlns="http://www.w3.org/2000/svg">
<path d="M64.75 9.25004H45.695C44.4 5.67337 41.0083 3.08337 37 3.08337C32.9917 3.08337 29.6 5.67337 28.305 9.25004H9.25V64.75H64.75V9.25004ZM33.9167 43.6909L29.5692 48.0692L18.5 37L29.5692 25.9309L33.9167 30.3092L27.2258 37L33.9167 43.6909ZM37 13.1042C35.7358 13.1042 34.6875 12.0559 34.6875 10.7917C34.6875 9.52754 35.7358 8.47921 37 8.47921C38.2642 8.47921 39.3125 9.52754 39.3125 10.7917C39.3125 12.0559 38.2642 13.1042 37 13.1042ZM44.4308 48.0692L40.0833 43.6909L46.7742 37L40.0833 30.3092L44.4308 25.9309L55.5 37L44.4308 48.0692Z" fill="#1E9B9F"/>
</svg>
