<svg width="60" height="60" viewBox="0 0 60 60" fill="none" xmlns="http://www.w3.org/2000/svg">
<circle cx="30" cy="30" r="28.5" stroke="url(#paint0_linear)" stroke-width="3"/>
<path fill-rule="evenodd" clip-rule="evenodd" d="M25.465 19.066C26.638 19.012 27.012 19 30 19C32.988 19 33.362 19.013 34.534 19.066C35.706 19.119 36.506 19.306 37.206 19.577C37.939 19.854 38.604 20.287 39.154 20.847C39.714 21.396 40.146 22.06 40.422 22.794C40.694 23.494 40.88 24.294 40.934 25.464C40.988 26.639 41 27.013 41 30C41 32.988 40.987 33.362 40.934 34.535C40.881 35.705 40.694 36.505 40.422 37.205C40.146 37.9391 39.7133 38.6042 39.154 39.154C38.604 39.714 37.939 40.146 37.206 40.422C36.506 40.694 35.706 40.88 34.536 40.934C33.362 40.988 32.988 41 30 41C27.012 41 26.638 40.987 25.465 40.934C24.295 40.881 23.495 40.694 22.795 40.422C22.0609 40.146 21.3958 39.7133 20.846 39.154C20.2864 38.6047 19.8533 37.9399 19.577 37.206C19.306 36.506 19.12 35.706 19.066 34.536C19.012 33.361 19 32.987 19 30C19 27.012 19.013 26.638 19.066 25.466C19.119 24.294 19.306 23.494 19.577 22.794C19.8537 22.0601 20.2871 21.3953 20.847 20.846C21.396 20.2865 22.0605 19.8534 22.794 19.577C23.494 19.306 24.294 19.12 25.464 19.066H25.465ZM34.445 21.046C33.285 20.993 32.937 20.982 30 20.982C27.063 20.982 26.715 20.993 25.555 21.046C24.482 21.095 23.9 21.274 23.512 21.425C22.999 21.625 22.632 21.862 22.247 22.247C21.882 22.6021 21.6012 23.0343 21.425 23.512C21.274 23.9 21.095 24.482 21.046 25.555C20.993 26.715 20.982 27.063 20.982 30C20.982 32.937 20.993 33.285 21.046 34.445C21.095 35.518 21.274 36.1 21.425 36.488C21.601 36.965 21.882 37.398 22.247 37.753C22.602 38.118 23.035 38.399 23.512 38.575C23.9 38.726 24.482 38.905 25.555 38.954C26.715 39.007 27.062 39.018 30 39.018C32.938 39.018 33.285 39.007 34.445 38.954C35.518 38.905 36.1 38.726 36.488 38.575C37.001 38.375 37.368 38.138 37.753 37.753C38.118 37.398 38.399 36.965 38.575 36.488C38.726 36.1 38.905 35.518 38.954 34.445C39.007 33.285 39.018 32.937 39.018 30C39.018 27.063 39.007 26.715 38.954 25.555C38.905 24.482 38.726 23.9 38.575 23.512C38.375 22.999 38.138 22.632 37.753 22.247C37.3979 21.8821 36.9657 21.6012 36.488 21.425C36.1 21.274 35.518 21.095 34.445 21.046ZM28.595 33.391C29.3797 33.7176 30.2534 33.7617 31.0669 33.5157C31.8805 33.2697 32.5834 32.7489 33.0556 32.0422C33.5278 31.3356 33.7401 30.4869 33.656 29.6411C33.572 28.7953 33.197 28.005 32.595 27.405C32.2112 27.0215 31.7472 26.7278 31.2363 26.5451C30.7255 26.3625 30.1804 26.2954 29.6405 26.3486C29.1006 26.4019 28.5792 26.5742 28.1138 26.8531C27.6485 27.1321 27.2507 27.5107 26.9493 27.9619C26.6479 28.413 26.4502 28.9253 26.3705 29.462C26.2908 29.9986 26.3312 30.5463 26.4885 31.0655C26.6459 31.5847 26.9165 32.0626 27.2807 32.4647C27.645 32.8668 28.0938 33.1832 28.595 33.391ZM26.002 26.002C26.527 25.477 27.1503 25.0605 27.8363 24.7764C28.5223 24.4922 29.2575 24.346 30 24.346C30.7425 24.346 31.4777 24.4922 32.1637 24.7764C32.8497 25.0605 33.473 25.477 33.998 26.002C34.523 26.527 34.9395 27.1503 35.2236 27.8363C35.5078 28.5223 35.654 29.2575 35.654 30C35.654 30.7425 35.5078 31.4777 35.2236 32.1637C34.9395 32.8497 34.523 33.473 33.998 33.998C32.9377 35.0583 31.4995 35.654 30 35.654C28.5005 35.654 27.0623 35.0583 26.002 33.998C24.9417 32.9377 24.346 31.4995 24.346 30C24.346 28.5005 24.9417 27.0623 26.002 26.002ZM36.908 25.188C37.0381 25.0653 37.1423 24.9177 37.2143 24.754C37.2863 24.5903 37.3248 24.4138 37.3274 24.2349C37.33 24.0561 37.2967 23.8785 37.2295 23.7128C37.1622 23.5471 37.0624 23.3965 36.936 23.27C36.8095 23.1436 36.6589 23.0438 36.4932 22.9765C36.3275 22.9093 36.1499 22.876 35.9711 22.8786C35.7922 22.8812 35.6157 22.9197 35.452 22.9917C35.2883 23.0637 35.1407 23.1679 35.018 23.298C34.7793 23.551 34.6486 23.8871 34.6537 24.2349C34.6588 24.5827 34.7992 24.9149 35.0452 25.1608C35.2911 25.4068 35.6233 25.5472 35.9711 25.5523C36.3189 25.5574 36.655 25.4267 36.908 25.188Z" fill="white"/>
<defs>
<linearGradient id="paint0_linear" x1="30" y1="3" x2="30" y2="57" gradientUnits="userSpaceOnUse">
<stop stop-color="#1DDFB2"/>
<stop offset="1" stop-color="#1F1E59"/>
</linearGradient>
</defs>
</svg>
