<svg width="38" height="38" viewBox="0 0 38 38" fill="none" xmlns="http://www.w3.org/2000/svg">
<g id="dark/light switch button">
<rect id="Rectangle 16" x="1" y="1" width="36" height="36" stroke="white" stroke-width="2"/>
<g id="ic:outline-light-mode">
<path id="Vector" d="M19 16C20.65 16 22 17.35 22 19C22 20.65 20.65 22 19 22C17.35 22 16 20.65 16 19C16 17.35 17.35 16 19 16ZM19 14C16.24 14 14 16.24 14 19C14 21.76 16.24 24 19 24C21.76 24 24 21.76 24 19C24 16.24 21.76 14 19 14ZM9 20H11C11.55 20 12 19.55 12 19C12 18.45 11.55 18 11 18H9C8.45 18 8 18.45 8 19C8 19.55 8.45 20 9 20ZM27 20H29C29.55 20 30 19.55 30 19C30 18.45 29.55 18 29 18H27C26.45 18 26 18.45 26 19C26 19.55 26.45 20 27 20ZM18 9V11C18 11.55 18.45 12 19 12C19.55 12 20 11.55 20 11V9C20 8.45 19.55 8 19 8C18.45 8 18 8.45 18 9ZM18 27V29C18 29.55 18.45 30 19 30C19.55 30 20 29.55 20 29V27C20 26.45 19.55 26 19 26C18.45 26 18 26.45 18 27ZM12.99 11.58C12.8975 11.4873 12.7876 11.4137 12.6666 11.3636C12.5457 11.3134 12.416 11.2876 12.285 11.2876C12.154 11.2876 12.0243 11.3134 11.9034 11.3636C11.7824 11.4137 11.6725 11.4873 11.58 11.58C11.4873 11.6725 11.4137 11.7824 11.3636 11.9034C11.3134 12.0243 11.2876 12.154 11.2876 12.285C11.2876 12.416 11.3134 12.5457 11.3636 12.6666C11.4137 12.7876 11.4873 12.8975 11.58 12.99L12.64 14.05C13.03 14.44 13.67 14.44 14.05 14.05C14.43 13.66 14.44 13.02 14.05 12.64L12.99 11.58ZM25.36 23.95C25.2675 23.8573 25.1576 23.7837 25.0366 23.7336C24.9157 23.6834 24.786 23.6576 24.655 23.6576C24.524 23.6576 24.3944 23.6834 24.2734 23.7336C24.1524 23.7837 24.0425 23.8573 23.95 23.95C23.8573 24.0425 23.7837 24.1524 23.7336 24.2734C23.6834 24.3944 23.6576 24.524 23.6576 24.655C23.6576 24.786 23.6834 24.9157 23.7336 25.0366C23.7837 25.1576 23.8573 25.2675 23.95 25.36L25.01 26.42C25.4 26.81 26.04 26.81 26.42 26.42C26.5127 26.3275 26.5863 26.2176 26.6364 26.0966C26.6866 25.9757 26.7124 25.846 26.7124 25.715C26.7124 25.584 26.6866 25.4543 26.6364 25.3334C26.5863 25.2124 26.5127 25.1025 26.42 25.01L25.36 23.95ZM26.42 12.99C26.5127 12.8975 26.5863 12.7876 26.6364 12.6666C26.6866 12.5457 26.7124 12.416 26.7124 12.285C26.7124 12.154 26.6866 12.0243 26.6364 11.9034C26.5863 11.7824 26.5127 11.6725 26.42 11.58C26.3275 11.4873 26.2176 11.4137 26.0966 11.3636C25.9757 11.3134 25.846 11.2876 25.715 11.2876C25.584 11.2876 25.4543 11.3134 25.3334 11.3636C25.2124 11.4137 25.1025 11.4873 25.01 11.58L23.95 12.64C23.56 13.03 23.56 13.67 23.95 14.05C24.34 14.43 24.98 14.44 25.36 14.05L26.42 12.99ZM14.05 25.36C14.1427 25.2675 14.2163 25.1576 14.2664 25.0366C14.3166 24.9157 14.3424 24.786 14.3424 24.655C14.3424 24.524 14.3166 24.3944 14.2664 24.2734C14.2163 24.1524 14.1427 24.0425 14.05 23.95C13.9575 23.8573 13.8476 23.7837 13.7266 23.7336C13.6057 23.6834 13.476 23.6576 13.345 23.6576C13.214 23.6576 13.0843 23.6834 12.9634 23.7336C12.8424 23.7837 12.7325 23.8573 12.64 23.95L11.58 25.01C11.19 25.4 11.19 26.04 11.58 26.42C11.97 26.8 12.61 26.81 12.99 26.42L14.05 25.36Z" fill="white"/>
</g>
</g>
</svg>
