<svg width="60" height="60" viewBox="0 0 60 60" fill="none" xmlns="http://www.w3.org/2000/svg">
<circle cx="30" cy="30" r="28.5" stroke="url(#paint0_linear)" stroke-width="3"/>
<path d="M41.643 22.9371C40.808 23.3071 39.911 23.5571 38.968 23.6701C39.941 23.0879 40.669 22.1715 41.016 21.0921C40.1019 21.6351 39.1014 22.0173 38.058 22.2221C37.3564 21.4729 36.4271 20.9764 35.4143 20.8096C34.4016 20.6427 33.3621 20.8149 32.4572 21.2993C31.5524 21.7838 30.8328 22.5534 30.4102 23.4888C29.9875 24.4241 29.8855 25.4728 30.12 26.4721C28.2677 26.3791 26.4556 25.8976 24.8014 25.059C23.1472 24.2203 21.6879 23.0432 20.518 21.6041C20.118 22.2941 19.888 23.0941 19.888 23.9461C19.8876 24.7131 20.0764 25.4683 20.4379 26.1448C20.7993 26.8213 21.3222 27.3981 21.96 27.8241C21.2203 27.8005 20.4969 27.6007 19.85 27.2411V27.3011C19.8499 28.3768 20.222 29.4195 20.9032 30.2521C21.5843 31.0847 22.5326 31.656 23.587 31.8691C22.9008 32.0548 22.1813 32.0821 21.483 31.9491C21.7805 32.8747 22.36 33.6841 23.1404 34.264C23.9208 34.8439 24.8629 35.1653 25.835 35.1831C24.1848 36.4785 22.1469 37.1812 20.049 37.1781C19.6774 37.1782 19.3061 37.1565 18.937 37.1131C21.0665 38.4823 23.5454 39.2089 26.077 39.2061C34.647 39.2061 39.332 32.1081 39.332 25.9521C39.332 25.7521 39.327 25.5501 39.318 25.3501C40.2293 24.6911 41.0159 23.875 41.641 22.9401L41.643 22.9371Z" fill="white"/>
<defs>
<linearGradient id="paint0_linear" x1="30" y1="3" x2="30" y2="57" gradientUnits="userSpaceOnUse">
<stop stop-color="#1DDFB2"/>
<stop offset="1" stop-color="#1F1E59"/>
</linearGradient>
</defs>
</svg>
