<svg width="74" height="74" viewBox="0 0 74 74" fill="none" xmlns="http://www.w3.org/2000/svg">
<g clip-path="url(#clip0)">
<path d="M64.7501 55.4997C64.7779 56.7316 64.5594 57.9565 64.1073 59.1027C63.6553 60.2489 62.9787 61.2933 62.1175 62.1744C61.2563 63.0556 60.2277 63.7558 59.0921 64.2339C57.9565 64.7121 56.7369 64.9586 55.5048 64.9589C54.2726 64.9592 53.0528 64.7133 51.917 64.2357C50.7812 63.7581 49.7523 63.0584 48.8906 62.1777C48.0289 61.297 47.3519 60.253 46.8992 59.107C46.4466 57.9611 46.2275 56.7362 46.2547 55.5044C46.3081 53.0875 47.3056 50.7876 49.0336 49.097C50.7615 47.4064 53.0827 46.4595 55.5001 46.4589C57.9176 46.4583 60.2392 47.4041 61.968 49.0938C63.6968 50.7835 64.6954 53.0829 64.7501 55.4997Z" fill="#1E9B9F"/>
<path d="M54.1125 74C50.4125 74 46.7125 73.075 43.475 70.7625L14.8 55.5C12.4875 53.65 10.6375 52.725 8.7875 50.875C3.2375 45.325 0 37.4625 0 29.6C0 21.7375 3.2375 14.3375 8.7875 8.7875C14.3375 3.2375 21.7375 0 29.6 0C37.4625 0 44.8625 3.2375 50.875 8.7875C52.725 10.6375 53.65 12.025 55.5 14.3375L71.6875 43.9375C76.3125 51.8 74.925 61.5125 68.45 67.9875C64.2875 72.15 59.6625 74 54.1125 74ZM29.6 4.625C23.125 4.625 16.65 7.4 12.025 12.025C7.4 16.65 4.625 23.125 4.625 29.6C4.625 36.5375 7.4 42.55 12.025 47.175C13.4125 48.5625 14.8 49.4875 17.1125 50.875L46.25 66.6C49.025 68.45 51.8 68.9125 54.575 68.9125C58.7375 68.9125 62.4375 67.525 65.2125 64.2875C70.3 59.2 71.225 51.8 67.525 45.7875L51.3375 16.1875C49.95 14.3375 49.025 12.95 47.6375 11.5625C42.55 7.4 36.5375 4.625 29.6 4.625Z" fill="#1E9B9F"/>
<path d="M50.875 32.375V27.75L44.4 25.4375C43.9375 24.5125 43.9375 24.05 43.475 23.125L46.25 17.1125L43.0125 13.875L37 16.65C36.075 16.1875 35.6125 16.1875 34.6875 15.725L32.375 9.25H27.75L25.4375 15.725C24.5125 16.1875 24.05 16.1875 23.125 16.65L17.1125 13.875L13.875 17.1125L16.65 23.125C16.1875 24.05 16.1875 24.5125 15.725 25.4375L9.25 27.75V32.375L15.725 34.6875C16.1875 35.6125 16.1875 36.075 16.65 37L13.875 43.0125L17.1125 46.25L23.125 43.475C24.05 43.9375 24.5125 44.4 25.4375 44.4L27.75 50.875H32.375L34.6875 44.4C35.6125 43.9375 36.075 43.9375 37 43.475L43.0125 46.25L46.25 43.0125L43.475 37C43.9375 36.075 44.4 35.6125 44.4 34.6875L50.875 32.375ZM30.0625 37C26.3625 37 23.125 33.7625 23.125 30.0625C23.125 26.3625 26.3625 23.125 30.0625 23.125C33.7625 23.125 37 26.3625 37 30.0625C37 33.7625 33.7625 37 30.0625 37Z" fill="#1E9B9F"/>
</g>
<defs>
<clipPath id="clip0">
<rect width="74" height="74" fill="white"/>
</clipPath>
</defs>
</svg>
